<svg xmlns="http://www.w3.org/2000/svg" width="163.721" height="236.961" viewBox="0 0 163.721 236.961"><defs><style>.a{fill:#f7cec4;}</style></defs><g transform="translate(6.766 40.166)"><g transform="translate(39.873 23.442)"><path class="a" d="M66.425,79.79a8.567,8.567,0,0,1-3.645-1.241,36.253,36.253,0,0,1-7.061-5.371,6.633,6.633,0,0,1-.769-1.084c-.184-.359-.371-.721-.513-1.064-.309-.7-.561-1.375-.816-2.053-.508-1.351-.939-2.7-1.419-4.033-.95-2.661-1.946-5.284-3.14-7.81a42.9,42.9,0,0,0-9.947-13.5A35.6,35.6,0,0,1,50.73,56.273a61.9,61.9,0,0,1,3.636,7.86l1.544,3.98a12.414,12.414,0,0,0,1.681,3.408A41.188,41.188,0,0,0,64.1,76.458a6.364,6.364,0,0,0,3.341.984,3.428,3.428,0,0,0,2.781-1.467,4.028,4.028,0,0,0,.947-3.175,18.683,18.683,0,0,0-1.236-3.88,44.785,44.785,0,0,1-1.33-7.293A34.919,34.919,0,0,0,65.9,56.122,38.247,38.247,0,0,1,61.769,44.9s-.662-6.669-2.489-9.448a23.947,23.947,0,0,0-3.607-4.366,12.957,12.957,0,0,1,6.873,8.644A22.808,22.808,0,0,0,60.18,27.963c-4.233-8.046-5.928-8.469-5.928-8.469l-3.6-17.466L24.983,8.856s4.605,7.622,3.493,13.973S21.662,53.62,25.459,57.286c9.209,8.893,15.4,18.1,26.359,25.882S72.937,98.729,74.684,92.06C74.684,92.06,76.1,87.769,66.425,79.79Z" transform="translate(-24.172 -2.028)"/><path class="a" d="M55.91,46.937c.229.556.535,1.167.826,1.824a40.982,40.982,0,0,1,9.6,4.165S66.7,46.388,55.021,44.2C55.289,45.136,55.574,46.058,55.91,46.937Z" transform="translate(-8.516 19.375)"/><circle class="a" cx="3.923" cy="3.923" r="3.923" transform="translate(50.047 89.575)"/><path class="a" d="M67.722,64.744a4.275,4.275,0,0,1-3.509-6.725,48.723,48.723,0,0,0-7.334-5.729,5.862,5.862,0,0,1-1.48,1.289,5.728,5.728,0,0,1-2.261.693c4.057,2.364,9.622,6.573,9.107,11.655A4.165,4.165,0,0,1,67.195,68a2.569,2.569,0,0,0,.941-1.4,5.011,5.011,0,0,0,.14-1.919A4.219,4.219,0,0,1,67.722,64.744Z" transform="translate(-9.472 23.481)"/><path class="a" d="M64.18,58.852a4.171,4.171,0,0,1,4.313.133,4.159,4.159,0,0,0,.038-2.207c-.672-3.2-8.615-7.186-11.855-8.694a8,8,0,0,1,.268,1.039,5.945,5.945,0,0,1-.834,4.31A29.2,29.2,0,0,1,64.18,58.852Z" transform="translate(-7.963 21.346)"/><circle class="a" cx="3.053" cy="3.053" r="3.053" transform="translate(50.916 90.445)"/><circle class="a" cx="3.053" cy="3.053" r="3.053" transform="translate(56.691 97.448)"/><circle class="a" cx="3.053" cy="3.053" r="3.053" transform="translate(48.902 102.707)"/><circle class="a" cx="3.053" cy="3.053" r="3.053" transform="translate(56.691 114.034)"/><circle class="a" cx="3.053" cy="3.053" r="3.053" transform="translate(53.638 123.456)"/><circle class="a" cx="3.053" cy="3.053" r="3.053" transform="translate(55.156 80.89)"/></g><g transform="translate(-6.766 -40.166)"><path class="a" d="M3.064,24.416l1.073-3.494c1.972.606,3.534-.164,4.554-3.485.966-3.149.424-4.83-1.134-5.308a1.569,1.569,0,0,0-1.909.663,22.155,22.155,0,0,0-2,4.158C2.594,19.538,1.7,21.231.615,22.036a4.237,4.237,0,0,1-3.708.488c-3.425-1.052-4.48-5.011-3.056-9.648,1.636-5.328,4.572-7,8.448-5.81L1.224,10.561C-1,9.916-2.444,10.8-3.317,13.635c-.828,2.7-.327,4.518,1.126,4.964a1.7,1.7,0,0,0,2.126-.635,28.452,28.452,0,0,0,2.05-4.33C2.969,11.288,3.637,9.978,4.7,8.98A3.91,3.91,0,0,1,8.576,8.2c3.46,1.063,4.607,4.6,2.929,10.063C9.7,24.144,6.42,25.446,3.064,24.416Z" transform="translate(6.766 63.952)"/><path class="a" d="M3.753,10.783C-1.342,8.189-2.845,3.4-.4-1.4c2.267-4.45,6.326-6.039,10.55-3.886L8.493-2.034A4.117,4.117,0,0,0,2.618.012C1.205,2.784,2.3,5.5,5.592,7.171c3.258,1.658,6.111,1,7.474-1.676,1.3-2.548.683-4.851-1.655-6.083l1.66-3.256c4.257,2.168,5.2,6.464,2.881,11.011C13.57,11.843,8.848,13.378,3.753,10.783Z" transform="translate(9.415 57.383)"/><path class="a" d="M4.09-7.677l2.53-3.164L10.541-7.52l.023-.029C8.569-10.21,8-13.027,10.3-15.908c2.418-3.023,5.729-3.108,9.2-.33.876.7,1.939,1.688,2.486,2.221l-2.3,2.881a24.115,24.115,0,0,0-1.8-1.627c-2.344-1.875-4.168-1.853-5.659.012-1.921,2.4-1.084,5.525,2.251,8.19l6.1,4.878L18.045,3.481Z" transform="translate(12.275 51.288)"/><path class="a" d="M17.807-12.6c-3.424-4.577-2.622-9.6,1.925-13,4.575-3.424,9.624-2.775,13.048,1.8,3.4,4.548,2.579,9.546-2,12.969C26.237-7.436,21.209-8.057,17.807-12.6Zm11.73-8.777c-2.189-2.925-5.175-3.535-7.812-1.563s-2.863,4.988-.674,7.913c2.168,2.9,5.1,3.5,7.738,1.527S31.7-18.483,29.536-21.38Z" transform="translate(18.164 46.453)"/><path class="a" d="M25.336-35.362l3.7-1.652L39.253-14.122l-3.7,1.651Z" transform="translate(23.058 41.766)"/><path class="a" d="M32.071-38.207l3.891-1.131,7,24.07-3.891,1.131Z" transform="translate(26.476 40.586)"/><path class="a" d="M46.324-26.164c.686-5.347,4.5-8.615,9.773-7.94,3.335.428,5.248,2.023,5.7,4.2l.035,0,1.316-10.263,4.019.516L63.977-14.784,59.958-15.3c.207-1.031.44-2.57.731-4.284l-.069-.009c-1.042,2.712-3.5,4.221-7.121,3.757C48.368-16.492,45.615-20.639,46.324-26.164Zm14.748,2.181.112-.861c.4-3.158-1.527-5.448-4.865-5.876-3.193-.409-5.578,1.693-6.01,5.065-.451,3.517,1.28,6.218,4.438,6.624A5.337,5.337,0,0,0,61.072-23.983Z" transform="translate(33.654 40.166)"/><path class="a" d="M62.169-26.482c2.7-5.041,7.6-6.442,12.609-3.757,5.04,2.7,6.588,7.553,3.888,12.594-2.683,5.008-7.565,6.378-12.606,3.677C61.051-16.652,59.487-21.473,62.169-26.482ZM75.092-19.56c1.725-3.223,1.016-6.19-1.887-7.746s-5.736-.484-7.461,2.738c-1.71,3.19-1.015,6.11,1.887,7.664S73.383-16.37,75.092-19.56Z" transform="translate(41.093 44.524)"/><path class="a" d="M81.954-25.6l2.914,3.172L77.156-10.383l.048.053,13.073-6.2,2.715,2.959L85.623-1.16l.048.054L98.4-7.683,101-4.856,84.325,3.422,80.949-.258l7.06-11.736-.074-.08L75.54-6.15,72.285-9.7Z" transform="translate(46.885 47.559)"/><path class="a" d="M98.546-8.245l1.839,3.612L96.063-2.595l.017.033c3.314-.591,6.009.635,7.9,4.345,2.052,4.031,1.028,7.679-2.906,9.684l-9.965,5.074-1.841-3.612,9.16-4.664c2.515-1.281,3.211-3.422,1.75-6.292-1.61-3.161-4.53-4.192-8.014-2.418L84.454,3.48,82.615-.132Z" transform="translate(52.128 56.366)"/><path class="a" d="M101.484,24.151l1.606,24.955-2.673.172-1.6-24.955Z" transform="translate(60.348 72.808)"/><path class="a" d="M98.485,59.355l-1.1,3.485c-1.967-.621-3.535.136-4.581,3.448-.992,3.14-.463,4.826,1.09,5.315a1.568,1.568,0,0,0,1.913-.647,22.251,22.251,0,0,0,2.029-4.141c1.081-2.581,1.993-4.266,3.08-5.061a4.234,4.234,0,0,1,3.712-.46c3.416,1.081,4.44,5.047,2.979,9.669-1.679,5.315-4.63,6.965-8.495,5.742l1.1-3.485c2.221.665,3.671-.205,4.565-3.035.852-2.691.363-4.515-1.085-4.973a1.7,1.7,0,0,0-2.13.617,28.4,28.4,0,0,0-2.083,4.313c-1,2.34-1.684,3.642-2.756,4.633a3.9,3.9,0,0,1-3.879.748C89.393,74.433,88.275,70.892,90,65.44,91.851,59.574,95.138,58.3,98.485,59.355Z" transform="translate(55.469 90.503)"/><path class="a" d="M97.57,73.079c5.067,2.646,6.52,7.444,4.024,12.221-2.311,4.426-6.383,5.971-10.584,3.778l1.691-3.24a4.113,4.113,0,0,0,5.893-1.982c1.44-2.757.371-5.48-2.9-7.188-3.238-1.691-6.1-1.061-7.486,1.6-1.324,2.534-.734,4.842,1.59,6.1L88.107,87.6c-4.232-2.209-5.127-6.514-2.766-11.035C87.769,71.919,92.5,70.432,97.57,73.079Z" transform="translate(52.862 96.977)"/><path class="a" d="M96.8,92.715,94.232,95.85l-3.883-3.363-.023.027c1.964,2.683,2.5,5.508.166,8.364-2.451,3-5.762,3.044-9.2.226-.868-.712-1.919-1.711-2.462-2.248L81.162,96c.487.491,1.141,1.12,1.785,1.648,2.323,1.9,4.149,1.9,5.659.051,1.948-2.379,1.147-5.513-2.156-8.216L80.4,84.534,82.969,81.4Z" transform="translate(50.204 101.861)"/><path class="a" d="M83.427,96.6c3.359,4.628,2.484,9.644-2.114,12.981-4.625,3.357-9.666,2.635-13.025-1.993-3.338-4.6-2.442-9.583,2.186-12.942C75.07,91.31,80.089,92,83.427,96.6Zm-11.86,8.608c2.148,2.958,5.126,3.614,7.791,1.678s2.937-4.948.788-7.905c-2.124-2.928-5.053-3.574-7.718-1.64S69.443,102.282,71.567,105.209Z" transform="translate(43.839 107.529)"/><path class="a" d="M73.684,121.105l-3.727,1.59L60.121,99.629l3.728-1.59Z" transform="translate(40.712 110.307)"/><path class="a" d="M65.869,124.044l-3.912,1.064-6.583-24.2,3.912-1.063Z" transform="translate(38.303 111.224)"/><path class="a" d="M55.359,111.864c-.778,5.332-4.645,8.534-9.906,7.765-3.329-.485-5.211-2.112-5.625-4.293l-.036-.006L38.3,125.568l-4.008-.585,3.618-24.8,4.008.583c-.223,1.028-.484,2.563-.807,4.269l.072.011c1.087-2.692,3.567-4.159,7.183-3.63C53.484,102.158,56.164,106.351,55.359,111.864Zm-14.7-2.438-.125.858c-.46,3.151,1.431,5.474,4.759,5.959,3.185.464,5.606-1.6,6.1-4.96.511-3.508-1.173-6.24-4.324-6.7A5.333,5.333,0,0,0,40.655,109.426Z" transform="translate(27.603 111.393)"/><path class="a" d="M38.827,109.689c-2.781,5-7.7,6.319-12.666,3.556-5-2.78-6.467-7.657-3.686-12.654,2.762-4.966,7.664-6.256,12.662-3.476C40.1,99.878,41.591,104.723,38.827,109.689Zm-12.811-7.128c-1.777,3.194-1.114,6.173,1.764,7.774s5.727.576,7.5-2.619c1.759-3.163,1.111-6.092-1.767-7.691S27.777,99.4,26.017,102.561Z" transform="translate(20.9 109.107)"/><path class="a" d="M22.325,111.927l-2.875-3.2L27.3,96.776l-.048-.056-13.141,6.05-2.68-2.989,7.512-12.325L18.9,87.4l-12.8,6.425-2.56-2.857,16.761-8.079,3.333,3.716-7.194,11.65.072.081,12.46-5.777,3.213,3.582Z" transform="translate(11.993 102.619)"/><path class="a" d="M3.84,92.961,2.034,89.333l4.339-2L6.356,87.3c-3.317.561-6-.69-7.854-4.416-2.017-4.049-.959-7.687,2.992-9.653L11.5,68.25l1.806,3.627-9.2,4.58C1.584,77.714.869,79.849,2.3,82.731c1.58,3.175,4.491,4.232,7.988,2.49l7.741-3.855,1.806,3.627Z" transform="translate(8.933 95.188)"/><path class="a" d="M-4.939,60.635-6.353,35.678l2.673-.151,1.414,24.955Z" transform="translate(6.975 78.581)"/></g></g></svg>